#!OML:ASF H:\GeneralSubjects\Female5\Project 1\Capture day 1\Session 1\Female5.ASF
:FULLY-SPECIFIED
:DEGREES
383
root 2.90028 15.6418 0.287019 187.554 -2.27578 -171.552
lowerback 10.562 4.16053 13.9993
upperback -9.92668 7.46277 -2.02053
thorax -15.3138 1.47665 -11.7614
lowerneck -15.1564 8.78574 8.5983
upperneck 33.8715 7.62096 1.79508
head 14.5508 3.85263 0.362169
rclavicle -2.48481e-015 -1.59028e-015
rhumerus -51.3232 -4.52557 -71.625
rradius 26.1961
rwrist -30.4937
rhand -18.8789 -30.4254
rfingers 7.12502
rthumb 7.42202 -60.2752
lclavicle -2.48481e-015 -1.59028e-015
lhumerus -37.6167 -5.28406 77.9843
lradius 32.7969
lwrist -4.58608
lhand -17.3681 33.1507
lfingers 7.12502
lthumb 8.88017 422.944
rfemur 1.97612 14.1991 45.5585
rtibia 0.435668
rfoot -22.3196 -12.7427
rtoes 3.22085
lfemur -38.7024 -0.659173 -15.5711
ltibia 28.3554
lfoot -19.505 18.8236
ltoes -67.166
384
root 2.9159 15.638 0.122482 187.865 -1.75797 -171.587
lowerback 10.4479 4.31987 14.1576
upperback -10.0323 7.67873 -2.02773
thorax -15.2893 1.54774 -11.8821
lowerneck -14.6315 9.38526 9.2091
upperneck 33.441 8.61348 1.32839
head 14.3469 4.31535 0.227408
rclavicle -1.09133e-013 -3.18055e-014
rhumerus -51.659 -4.24905 -72.1707
rradius 26.6014
rwrist -31.2425
rhand -17.889 -30.4325
rfingers 7.12502
rthumb 8.37746 -60.2464
lclavicle -1.09133e-013 -3.18055e-014
lhumerus -38.1922 -3.17995 76.3365
lradius 30.7895
lwrist -6.27478
lhand -17.5437 33.3415
lfingers 7.12502
lthumb 8.7107 423.142
rfemur 2.65683 14.5668 45.7495
rtibia -0.0353011
rfoot -22.3943 -12.4736
rtoes 1.08248
lfemur -38.198 -3.22414 -15.1059
ltibia 23.2031
lfoot -20.0265 20.1296
ltoes -67.19
385
root 2.92603 15.6301 -0.0525582 188.102 -1.22082 -171.509
lowerback 10.3056 4.49828 14.4141
upperback -10.1007 7.93607 -2.015
thorax -15.1798 1.64238 -12.0317
lowerneck -14.3045 9.86548 9.87855
upperneck 33.1142 9.45548 0.658773
head 14.2586 4.69099 -0.0113358
rclavicle 7.85199e-015 1.43125e-014
rhumerus -51.8694 -4.13982 -72.5749
rradius 26.8659
rwrist -31.4426
rhand -17.5297 -30.411
rfingers 7.12502
rthumb 8.72424 -60.2107
lclavicle 7.85199e-015 1.43125e-014
lhumerus -38.7132 -0.989489 74.4065
lradius 28.9311
lwrist -7.75733
lhand -18.4015 33.7265
lfingers 7.12502
lthumb 7.88285 423.56
rfemur 3.42148 14.9109 46.0519
rtibia -0.428852
rfoot -22.5663 -12.233
rtoes -0.226145
lfemur -37.4903 -6.45338 -14.1377
ltibia 18.2285
lfoot -20.4268 23.0754
ltoes -66.0277
386
root 2.93609 15.6129 -0.229908 188.38 -0.76706 -171.359
lowerback 10.1793 4.65502 14.7491
upperback -10.2147 8.17803 -1.99501
thorax -15.1351 1.70773 -12.2176
lowerneck -13.9725 10.3635 10.6835
upperneck 32.9365 10.3072 -0.141939
head 14.273 5.06099 -0.3164
rclavicle -3.33958e-014 -1.43125e-014
rhumerus -51.9205 -3.9735 -72.9855
rradius 26.8635
rwrist -31.4143
rhand -17.702 -30.1365
rfingers 7.12502
rthumb 8.55795 -59.943
lclavicle -3.33958e-014 -1.43125e-014
lhumerus -39.2143 1.44332 72.1327
lradius 27.1583
lwrist -9.0663
lhand -19.6374 34.1996
lfingers 7.12502
lthumb 6.68985 424.074
rfemur 4.04612 14.8708 46.3773
rtibia -0.692728
rfoot -22.5205 -11.7294
rtoes 0.159904
lfemur -37.0659 -9.57809 -13.0852
ltibia 14.2079
lfoot -21.7093 25.7853
ltoes -64.4554
387
root 2.93982 15.5908 -0.417618 188.579 -0.330006 -171.237
lowerback 10.0646 3.88047 15.0605
upperback -10.324 8.62035 -1.89132
thorax -15.2234 2.47406 -12.5395
lowerneck -13.8201 10.6403 11.0182
upperneck 32.9106 10.839 -0.683036
head 14.3284 5.25983 -0.493155
rclavicle -2.36554e-014 -1.43125e-014
rhumerus -51.8673 -3.72362 -73.451
rradius 26.7276
rwrist -31.3503
rhand -17.8718 -30.0432
rfingers 7.12502
rthumb 8.39407 -59.8564
lclavicle -2.36554e-014 -1.43125e-014
lhumerus -39.9325 4.34984 69.4303
lradius 25.7144
lwrist -10.9241
lhand -22.9646 35.309
lfingers 7.12502
lthumb 3.4773 425.26
rfemur 4.65468 14.2712 46.5253
rtibia -0.866165
rfoot -22.3038 -10.8009
rtoes 1.15491
lfemur -36.6534 -12.5743 -12.0655
ltibia 11.0055
lfoot -24.8876 27.082
ltoes -65.8233
388
root 2.94973 15.5627 -0.613317 188.832 0.109367 -171.221
lowerback 9.80792 4.01788 15.3701
upperback -10.4128 8.83931 -1.9607
thorax -15.0625 2.56299 -12.7939
lowerneck -13.8074 10.7363 10.9721
upperneck 32.9601 11.1253 -1.04653
head 14.3882 5.32363 -0.579645
rclavicle -6.49032e-014 1.59028e-015
rhumerus -51.7751 -3.41906 -73.9662
rradius 26.7116
rwrist -31.3111
rhand -17.7733 -30.4165
rfingers 7.12502
rthumb 8.48908 -60.2258
lclavicle -6.49032e-014 1.59028e-015
lhumerus -40.7025 6.64359 66.8278
lradius 24.4846
lwrist -12.3599
lhand -26.2499 36.9016
lfingers 7.12502
lthumb 0.3044 426.881
rfemur 5.24585 14.2221 46.6941
rtibia -0.884269
rfoot -22.4212 -10.3409
rtoes 0.0939993
lfemur -36.3787 -15.569 -11.024
ltibia 8.55598
lfoot -29.1549 27.122
ltoes -64.7217
